<svg xmlns="http://www.w3.org/2000/svg" xmlns:xlink="http://www.w3.org/1999/xlink" version="1.1" x="0px" y="0px" viewBox="0 0 100 125" style="enable-background:new 0 0 100 100;" xml:space="preserve"><path d="M90.0458984,40.1386719c0-0.0141602-0.0075073-0.0258789-0.0080566-0.039856  c-0.0045166-0.1120605-0.0250244-0.2210693-0.0651855-0.3236694c-0.0043335-0.0110474-0.0057983-0.0228882-0.0105591-0.0337524  c-0.0443726-0.102478-0.1098633-0.1937256-0.1865234-0.2767944c-0.0174561-0.0189209-0.0343018-0.036438-0.0532227-0.0540161  c-0.0186768-0.017334-0.0332642-0.0380859-0.0534058-0.0541382l-10.7646484-8.56427v-9.4074097c0-0.5527344-0.4472656-1-1-1  H65.8208618c-0.0031128-0.0025024-0.0042725-0.0062866-0.0073853-0.0087891l-11.0644531-8.8027344  c-2.71875-2.1630859-6.5185547-2.1679688-9.2451172-0.0107422l-11.1356812,8.8222656H22.9814453c-0.5527344,0-1,0.4472656-1,1  v8.84375c-0.0342407,0.0209961-0.0731812,0.0281372-0.1054688,0.0537109l-11.4511719,9.0722656  c-0.0210571,0.0167236-0.036377,0.0383301-0.0559082,0.0565186c-0.0183105,0.0170288-0.03479,0.0339355-0.0517578,0.0523071  c-0.0772095,0.0834351-0.1428833,0.1751709-0.1875,0.2781372c-0.0045776,0.0105591-0.0060425,0.0221558-0.0102539,0.032959  c-0.0403442,0.1027832-0.0610962,0.2120361-0.0654907,0.3244629c-0.0005493,0.0139771-0.0079956,0.0256958-0.0079956,0.0397949  v48.8125c0,0.5527344,0.4472656,1,1,1h78c0.0005493,0,0.0010376-0.0003052,0.0015869-0.0003052  c0.1183472-0.0003052,0.2332764-0.0284424,0.3439941-0.069397c0.0249023-0.0092773,0.0488892-0.0172729,0.072876-0.0283813  c0.1010132-0.0466309,0.1953125-0.1069336,0.2772827-0.1868286c0.0133667-0.0130005,0.0223389-0.0288696,0.0349731-0.0426025  c0.0411987-0.0448608,0.0834961-0.088623,0.1169434-0.1422119c0.0139771-0.0223389,0.0147095-0.0480347,0.0267334-0.0709839  c0.0315552-0.0598755,0.052002-0.1221924,0.0710449-0.1884766c0.0187378-0.0656128,0.0344238-0.128479,0.0393677-0.1953125  c0.0020752-0.0262451,0.0151978-0.0487061,0.0151978-0.0755005V40.1386719z M12.0458984,41.9439697l36.1149902,22.6008301  L12.0458984,87.1452637V41.9439697z M50.0456543,65.7242432l35.5175171,22.2269287H14.5276489L50.0456543,65.7242432z   M51.9303589,64.5447998l36.1155396-22.6008301V87.145874L51.9303589,64.5447998z M87.3173828,40.0410156l-8.4130859,5.2648315  V33.3479614L87.3173828,40.0410156z M46.7460938,13.1308594c1.9912109-1.5791016,4.7695312-1.5751953,6.7568359,0.0068359  l9.1090698,7.2470703H37.5900269L46.7460938,13.1308594z M76.9042969,22.3847656v24.1726685L50.0455933,63.3653564  L23.9814453,47.0544434V22.3847656H76.9042969z M21.9814453,32.7511597v13.0516968l-9.2041016-5.7598877L21.9814453,32.7511597z"/><path d="M43.8320312,43.1689453l-1.1142578,6.5019531c-0.0644531,0.375,0.0898438,0.7539062,0.3974609,0.9775391  c0.3095703,0.2255859,0.7177734,0.2539062,1.0537109,0.0761719l5.8378906-3.0693359l5.8378906,3.0693359  c0.1464844,0.0771484,0.3066406,0.1152344,0.4658203,0.1152344c0.2070312,0,0.4130859-0.0644531,0.5878906-0.1914062  c0.3076172-0.2236328,0.4619141-0.6025391,0.3974609-0.9775391l-1.1152344-6.5019531l4.7236328-4.6044922  c0.2724609-0.265625,0.3701172-0.6630859,0.2529297-1.0253906c-0.1181641-0.3613281-0.4306641-0.625-0.8076172-0.6796875  l-6.5273438-0.9482422l-2.9189453-5.9150391c-0.1679688-0.3417969-0.515625-0.5576172-0.8964844-0.5576172  s-0.7285156,0.2158203-0.8964844,0.5576172l-2.9199219,5.9150391l-6.5273438,0.9482422  c-0.3769531,0.0546875-0.6894531,0.3183594-0.8076172,0.6796875c-0.1171875,0.3623047-0.0195312,0.7597656,0.2529297,1.0253906  L43.8320312,43.1689453z M46.9980469,37.8144531c0.3261719-0.046875,0.6074219-0.2519531,0.7529297-0.546875l2.2558594-4.5693359  l2.2548828,4.5693359c0.1455078,0.2949219,0.4267578,0.5,0.7529297,0.546875l5.0419922,0.7324219l-3.6484375,3.5576172  c-0.2353516,0.2294922-0.3427734,0.5605469-0.2871094,0.8847656l0.8613281,5.0224609l-4.5097656-2.3710938  c-0.2929688-0.1542969-0.6386719-0.1542969-0.9316406,0L45.03125,48.0117188l0.8603516-5.0224609  c0.0556641-0.3242188-0.0517578-0.6552734-0.2871094-0.8847656l-3.6484375-3.5576172L46.9980469,37.8144531z"/><text x="0" y="115" fill="#000000" font-size="5px" font-weight="bold" font-family="'Helvetica Neue', Helvetica, Arial-Unicode, Arial, Sans-serif">Created by Made by Made</text><text x="0" y="120" fill="#000000" font-size="5px" font-weight="bold" font-family="'Helvetica Neue', Helvetica, Arial-Unicode, Arial, Sans-serif">from the Noun Project</text></svg>